<svg width="50" height="27" viewBox="0 0 50 27" fill="none" xmlns="http://www.w3.org/2000/svg">
<path d="M49.8517 0.864247C50.0494 0.666538 50.0494 0.34599 49.8517 0.148281C49.654 -0.0494271 49.3335 -0.0494271 49.1358 0.148281L49.8517 0.864247ZM-7.24216e-07 23.973L3.09607 26.7119L5.83491 23.6158L2.73883 20.877L-7.24216e-07 23.973ZM49.1358 0.148281C45.5381 3.7459 38.8906 9.23688 30.6735 13.9773C22.4534 18.7196 12.7014 22.6882 2.88651 23.2891L2.94839 24.2997C12.9791 23.6856 22.887 19.6384 31.1795 14.8544C39.4751 10.0686 46.1929 4.52308 49.8517 0.864247L49.1358 0.148281Z" fill="white"/>
</svg>
