<svg width="32" height="29" viewBox="0 0 32 29" fill="none" xmlns="http://www.w3.org/2000/svg">
<path d="M9.33329 2.41667C7.86663 2.41667 6.66663 3.50417 6.66663 4.83333V22.9583C6.66663 23.5993 6.94758 24.214 7.44767 24.6672C7.94777 25.1204 8.62605 25.375 9.33329 25.375V26.5833H12V25.375H20V26.5833H22.6666V25.375C24.1466 25.375 25.3333 24.2996 25.3333 22.9583V4.83333C25.3333 4.19239 25.0523 3.57771 24.5522 3.12449C24.0521 2.67128 23.3739 2.41667 22.6666 2.41667H9.33329ZM9.33329 4.83333H22.6666V8.45833H9.33329V4.83333ZM9.33329 10.875H22.6666V14.5H9.33329V10.875ZM9.33329 16.9167H14.6666V22.9583H9.33329V16.9167ZM17.3333 16.9167H22.6666V22.9583H17.3333V16.9167ZM10.6666 18.125V21.75H13.3333V18.125H10.6666ZM18.6666 18.125V21.75H21.3333V18.125H18.6666Z" fill="black" fill-opacity="0.6"/>
</svg>
