<svg width="6" height="7" viewBox="0 0 6 7" fill="none" xmlns="http://www.w3.org/2000/svg">
<path d="M1.51355 0.385729C2.44992 -0.137005 3.60087 -0.127868 4.52845 0.409662C5.44691 0.958141 6.00513 1.93701 5.99996 2.99001C5.97855 4.03609 5.37998 5.01941 4.63177 5.77957C4.19993 6.22028 3.71683 6.60999 3.19236 6.94072C3.13835 6.97073 3.07918 6.99082 3.01778 7C2.95868 6.99758 2.90114 6.98081 2.85032 6.95118C2.04961 6.45423 1.34714 5.8199 0.776713 5.07869C0.299395 4.45997 0.0282148 3.71247 0 2.9377L0.00213695 2.82499C0.0411095 1.81368 0.610627 0.889794 1.51355 0.385729ZM3.38883 2.07314C3.00817 1.91768 2.5693 2.00214 2.27714 2.28708C1.98497 2.57202 1.89713 3.00124 2.05464 3.37432C2.21215 3.7474 2.58393 3.99076 2.9964 3.99076C3.26662 3.99263 3.52637 3.88863 3.71778 3.70196C3.90918 3.51529 4.01635 3.26144 4.0154 2.99698C4.01683 2.59331 3.76948 2.2286 3.38883 2.07314Z" fill="white"/>
</svg>
