<svg width="25" height="21" viewBox="0 0 25 21" fill="none" xmlns="http://www.w3.org/2000/svg">
<path d="M19.7916 17.3464V16.0454M5.20825 17.3464V16.0454" stroke="black" stroke-opacity="0.6" stroke-width="1.5" stroke-linecap="round"/>
<path d="M21.8749 10.4078C21.8749 7.13718 21.8749 5.50141 20.6541 4.48578C19.4343 3.46928 17.4697 3.46928 13.5416 3.46928H11.4583C7.53013 3.46928 5.56554 3.46928 4.34575 4.48578C3.12492 5.50141 3.12492 7.13718 3.12492 10.4078M2.08325 13.0098C2.08325 12.2015 2.08325 11.7973 2.24159 11.479C2.34629 11.2684 2.49981 11.077 2.69338 10.9159C2.88695 10.7547 3.11677 10.6269 3.36971 10.5397C3.752 10.4078 4.23742 10.4078 5.20825 10.4078H19.7916C20.7624 10.4078 21.2478 10.4078 21.6301 10.5397C21.8831 10.6269 22.1129 10.7547 22.3065 10.9159C22.5 11.077 22.6536 11.2684 22.7583 11.479C22.9166 11.7973 22.9166 12.2015 22.9166 13.0098C22.9166 13.8181 22.9166 14.2223 22.7583 14.5406C22.6536 14.7512 22.5 14.9426 22.3065 15.1038C22.1129 15.2649 21.8831 15.3928 21.6301 15.4799C21.2478 15.6118 20.7624 15.6118 19.7916 15.6118H5.20825C4.23742 15.6118 3.752 15.6118 3.36971 15.4799C3.11677 15.3928 2.88695 15.2649 2.69338 15.1038C2.49981 14.9426 2.34629 14.7512 2.24159 14.5406C2.08325 14.2223 2.08325 13.8181 2.08325 13.0098Z" stroke="black" stroke-opacity="0.6" stroke-width="1.5"/>
<path d="M19.2707 10.4078V9.10687C19.2707 7.4711 19.2707 6.65409 18.6603 6.14584C18.0498 5.63759 17.0686 5.63759 15.104 5.63759H9.89567C7.93109 5.63759 6.94984 5.63759 6.33942 6.14584C5.729 6.65409 5.729 7.4711 5.729 9.10687V10.4078M12.4998 6.07125V10.4078" stroke="black" stroke-opacity="0.6" stroke-width="1.5"/>
</svg>
