<svg width="24" height="24" viewBox="0 0 24 24" fill="none" xmlns="http://www.w3.org/2000/svg">
<path d="M15.605 4.856L17.729 2.731C17.9598 2.49424 18.2353 2.30566 18.5395 2.17621C18.8437 2.04675 19.1706 1.979 19.5012 1.97687C19.8318 1.97475 20.1595 2.0383 20.4654 2.16384C20.7712 2.28938 21.0491 2.4744 21.2829 2.70818C21.5166 2.94195 21.7017 3.21983 21.8272 3.52567C21.9527 3.83152 22.0163 4.15925 22.0142 4.48986C22.012 4.82046 21.9443 5.14735 21.8148 5.45156C21.6854 5.75577 21.4968 6.03124 21.26 6.262L19.138 8.384C19.8683 9.82704 20.1443 11.4574 19.9297 13.0604C19.7151 14.6634 19.0201 16.1638 17.936 17.364C18.0764 17.8948 18.0378 18.457 17.8263 18.9636C17.6148 19.4702 17.2422 19.893 16.7662 20.1664C16.2901 20.4399 15.7372 20.5487 15.193 20.4762C14.6489 20.4036 14.1438 20.1536 13.756 19.765L4.26603 10.275C3.88185 9.89007 3.63384 9.39023 3.5597 8.85146C3.48557 8.31269 3.58936 7.76444 3.8553 7.29005C4.12124 6.81566 4.53479 6.44106 5.03309 6.22319C5.53139 6.00533 6.0872 5.9561 6.61603 6.083C7.81427 4.99303 9.31499 4.29221 10.9199 4.07314C12.5249 3.85406 14.1585 4.12704 15.605 4.856ZM18.315 7.086L20.199 5.202C20.386 5.01502 20.4911 4.76143 20.4911 4.497C20.4911 4.23257 20.386 3.97898 20.199 3.792C20.0121 3.60502 19.7585 3.49998 19.494 3.49998C19.2296 3.49998 18.976 3.60502 18.789 3.792L16.904 5.678C17.4304 6.08764 17.904 6.56091 18.314 7.087L18.315 7.086ZM5.32603 7.806C5.23345 7.89858 5.16001 8.00849 5.1099 8.12945C5.05979 8.25042 5.034 8.38007 5.034 8.511C5.034 8.64193 5.05979 8.77158 5.1099 8.89254C5.16001 9.01351 5.23345 9.12342 5.32603 9.216L14.816 18.705C14.9086 18.7976 15.0185 18.871 15.1395 18.9211C15.2605 18.9712 15.3901 18.997 15.521 18.997C15.652 18.997 15.7816 18.9712 15.9026 18.9211C16.0235 18.871 16.1334 18.7976 16.226 18.705C16.3186 18.6124 16.3921 18.5025 16.4422 18.3815C16.4923 18.2606 16.5181 18.1309 16.5181 18C16.5181 17.8691 16.4923 17.7394 16.4422 17.6185C16.3921 17.4975 16.3186 17.3876 16.226 17.295L6.73603 7.805C6.64345 7.71241 6.53354 7.63897 6.41258 7.58887C6.29161 7.53876 6.16196 7.51297 6.03103 7.51297C5.9001 7.51297 5.77045 7.53876 5.64949 7.58887C5.52852 7.63897 5.41861 7.71241 5.32603 7.805V7.806ZM7.78003 17.28C7.85372 17.2113 7.91282 17.1285 7.95381 17.0365C7.9948 16.9445 8.01685 16.8452 8.01862 16.7445C8.0204 16.6438 8.00188 16.5438 7.96415 16.4504C7.92643 16.357 7.87029 16.2722 7.79907 16.201C7.72785 16.1297 7.64302 16.0736 7.54963 16.0359C7.45624 15.9982 7.35621 15.9796 7.25551 15.9814C7.15481 15.9832 7.05549 16.0052 6.96349 16.0462C6.87149 16.0872 6.78869 16.1463 6.72003 16.22L4.72003 18.22C4.64634 18.2887 4.58724 18.3715 4.54625 18.4635C4.50526 18.5555 4.48322 18.6548 4.48144 18.7555C4.47966 18.8562 4.49819 18.9562 4.53591 19.0496C4.57363 19.143 4.62977 19.2278 4.70099 19.299C4.77221 19.3703 4.85705 19.4264 4.95043 19.4641C5.04382 19.5018 5.14385 19.5204 5.24455 19.5186C5.34526 19.5168 5.44457 19.4948 5.53657 19.4538C5.62857 19.4128 5.71137 19.3537 5.78003 19.28L7.78003 17.28ZM10.28 18.72C10.4205 18.8606 10.4994 19.0512 10.4994 19.25C10.4994 19.4487 10.4205 19.6394 10.28 19.78L8.28003 21.78C8.13786 21.9125 7.94981 21.9846 7.75551 21.9812C7.56121 21.9777 7.37582 21.899 7.23841 21.7616C7.101 21.6242 7.02228 21.4388 7.01886 21.2445C7.01543 21.0502 7.08755 20.8622 7.22003 20.72L9.22003 18.72C9.36066 18.5795 9.55128 18.5007 9.75003 18.5007C9.94878 18.5007 10.1394 18.5795 10.28 18.72ZM5.28003 14.78C5.35372 14.7113 5.41282 14.6285 5.45381 14.5365C5.4948 14.4445 5.51685 14.3452 5.51862 14.2445C5.5204 14.1438 5.50188 14.0438 5.46415 13.9504C5.42643 13.857 5.37029 13.7722 5.29907 13.701C5.22785 13.6297 5.14302 13.5736 5.04963 13.5359C4.95624 13.4982 4.85621 13.4796 4.75551 13.4814C4.65481 13.4832 4.55549 13.5052 4.46349 13.5462C4.37149 13.5872 4.28869 13.6463 4.22003 13.72L2.22003 15.72C2.14634 15.7887 2.08724 15.8715 2.04625 15.9635C2.00526 16.0555 1.98322 16.1548 1.98144 16.2555C1.97966 16.3562 1.99819 16.4562 2.03591 16.5496C2.07363 16.643 2.12977 16.7278 2.20099 16.799C2.27221 16.8703 2.35705 16.9264 2.45043 16.9641C2.54382 17.0018 2.64385 17.0204 2.74455 17.0186C2.84526 17.0168 2.94457 16.9948 3.03657 16.9538C3.12857 16.9128 3.21137 16.8537 3.28003 16.78L5.28003 14.78ZM17.096 16.036C18.085 14.7861 18.5804 13.2164 18.488 11.6252C18.3956 10.034 17.7219 8.53224 16.5948 7.40521C15.4678 6.27818 13.966 5.60445 12.3748 5.51205C10.7836 5.41964 9.21395 5.915 7.96403 6.904L17.096 16.036Z" fill="black" fill-opacity="0.6"/>
</svg>
