<svg width="16" height="19" viewBox="0 0 16 19" fill="none" xmlns="http://www.w3.org/2000/svg">
<path fill-rule="evenodd" clip-rule="evenodd" d="M6.15277 16.8844C6.58792 17.3943 7.14656 17.6744 7.7262 17.6744H7.72704C8.3092 17.6744 8.87036 17.3943 9.30634 16.8835C9.53988 16.6122 9.93807 16.5901 10.196 16.8349C10.4547 17.0797 10.4757 17.4994 10.243 17.7707C9.56424 18.5634 8.67126 19 7.72704 19H7.72536C6.78365 18.9991 5.89235 18.5626 5.21611 17.7699C4.98341 17.4986 5.00441 17.0788 5.26315 16.8349C5.52189 16.5892 5.92007 16.6113 6.15277 16.8844ZM7.76803 0C11.5021 0 14.0105 3.05944 14.0105 5.91651C14.0105 7.38614 14.3658 8.00916 14.743 8.67019C15.116 9.32237 15.5386 10.0629 15.5386 11.4627C15.2454 15.0392 11.6961 15.3308 7.76803 15.3308C3.83992 15.3308 0.289842 15.0392 1.11193e-05 11.5193C-0.00249783 10.0629 0.420051 9.32237 0.793036 8.67019L0.924711 8.43702C1.24891 7.85085 1.52557 7.21324 1.52557 5.91651C1.52557 3.05944 4.03398 0 7.76803 0ZM7.76803 1.32558C4.83203 1.32558 2.78565 3.74521 2.78565 5.91651C2.78565 7.75377 2.30094 8.60302 1.87251 9.35242C1.52893 9.95423 1.25759 10.4297 1.25759 11.4627C1.39788 13.1294 2.44375 14.0052 7.76803 14.0052C13.0629 14.0052 14.1415 13.0906 14.281 11.4053C14.2785 10.4297 14.0071 9.95423 13.6636 9.35242C13.2351 8.60302 12.7504 7.75377 12.7504 5.91651C12.7504 3.74521 10.704 1.32558 7.76803 1.32558Z" fill="white"/>
</svg>
