<svg width="14" height="18" viewBox="0 0 14 18" fill="none" xmlns="http://www.w3.org/2000/svg">
<path d="M3.53162 0.991876C5.71648 -0.352298 8.40203 -0.328804 10.5664 1.05342C12.7095 2.46379 14.012 4.98089 13.9999 7.68859C13.95 10.3785 12.5533 12.9071 10.8075 14.8617C9.79983 15.995 8.67261 16.9971 7.44884 17.8476C7.32281 17.9247 7.18475 17.9764 7.04148 18C6.9036 17.9938 6.76932 17.9506 6.65075 17.8745C4.78243 16.5966 3.14333 14.9655 1.81233 13.0595C0.698587 11.4685 0.0658345 9.54636 0 7.55409L0.00498622 7.26426C0.0959221 4.66374 1.4248 2.28804 3.53162 0.991876ZM7.90726 5.33094C7.01907 4.93119 5.99504 5.14837 5.31332 5.88107C4.63159 6.61378 4.42664 7.71747 4.79416 8.67683C5.16169 9.63618 6.02918 10.262 6.9916 10.262C7.6221 10.2668 8.22819 9.99935 8.67481 9.51933C9.12143 9.03931 9.37148 8.38656 9.36926 7.70652C9.37261 6.66851 8.79546 5.73068 7.90726 5.33094Z" fill="#797C7B"/>
</svg>
