<svg width="24" height="20" viewBox="0 0 24 20" fill="none" xmlns="http://www.w3.org/2000/svg">
<path d="M13.57 18.6342C13.34 18.6342 13.11 18.6009 12.89 18.5343C12.14 18.3011 11.66 17.7183 11.66 17.0522V11.6818H9.31997C8.55997 11.6818 7.89996 11.3237 7.58996 10.7492C7.27996 10.1747 7.39996 9.52526 7.89996 9.05066L15.47 1.89007C16 1.39049 16.82 1.21564 17.57 1.4571C18.32 1.69024 18.7999 2.27307 18.7999 2.93918V8.30962H21.14C21.9 8.30962 22.56 8.66765 22.87 9.24216C23.18 9.81668 23.06 10.4661 22.56 10.9407L14.99 18.1013C14.62 18.451 14.1 18.6342 13.57 18.6342ZM16.88 2.5978C16.79 2.5978 16.68 2.62278 16.59 2.71437L9.01995 9.88329C8.85995 10.0332 8.91997 10.183 8.94997 10.2413C8.97997 10.2996 9.07997 10.4411 9.31997 10.4411H12.41C12.82 10.4411 13.16 10.7242 13.16 11.0656V17.0605C13.16 17.2687 13.34 17.352 13.42 17.3769C13.5 17.4019 13.6999 17.4435 13.8599 17.2853L21.43 10.1164C21.59 9.96655 21.53 9.81668 21.5 9.75839C21.47 9.70011 21.37 9.55856 21.13 9.55856H18.04C17.63 9.55856 17.29 9.27547 17.29 8.93409V2.93918C17.29 2.73102 17.11 2.64776 17.03 2.62278C17 2.60613 16.94 2.5978 16.88 2.5978Z" fill="black" fill-opacity="0.6"/>
<path d="M8.5 3.95498H1.5C1.09 3.95498 0.75 3.67189 0.75 3.33051C0.75 2.98913 1.09 2.70604 1.5 2.70604H8.5C8.91 2.70604 9.25 2.98913 9.25 3.33051C9.25 3.67189 8.91 3.95498 8.5 3.95498Z" fill="black" fill-opacity="0.6"/>
<path d="M7.5 17.277H1.5C1.09 17.277 0.75 16.9939 0.75 16.6525C0.75 16.3112 1.09 16.0281 1.5 16.0281H7.5C7.91 16.0281 8.25 16.3112 8.25 16.6525C8.25 16.9939 7.91 17.277 7.5 17.277Z" fill="black" fill-opacity="0.6"/>
<path d="M4.5 10.616H1.5C1.09 10.616 0.75 10.3329 0.75 9.99152C0.75 9.65014 1.09 9.36705 1.5 9.36705H4.5C4.91 9.36705 5.25 9.65014 5.25 9.99152C5.25 10.3329 4.91 10.616 4.5 10.616Z" fill="black" fill-opacity="0.6"/>
</svg>
