<svg width="25" height="25" viewBox="0 0 25 25" fill="none" xmlns="http://www.w3.org/2000/svg">
<path d="M19.7917 20.8333V19.2708M5.20837 20.8333V19.2708" stroke="black" stroke-opacity="0.6" stroke-width="1.5" stroke-linecap="round"/>
<path d="M21.875 12.5C21.875 8.57187 21.875 6.60729 20.6542 5.3875C19.4344 4.16666 17.4698 4.16666 13.5417 4.16666H11.4584C7.53025 4.16666 5.56567 4.16666 4.34587 5.3875C3.12504 6.60729 3.12504 8.57187 3.12504 12.5M2.08337 15.625C2.08337 14.6542 2.08337 14.1687 2.24171 13.7865C2.34641 13.5335 2.49993 13.3037 2.6935 13.1101C2.88707 12.9166 3.1169 12.763 3.36983 12.6583C3.75212 12.5 4.23754 12.5 5.20837 12.5H19.7917C20.7625 12.5 21.248 12.5 21.6302 12.6583C21.8832 12.763 22.113 12.9166 22.3066 13.1101C22.5002 13.3037 22.6537 13.5335 22.7584 13.7865C22.9167 14.1687 22.9167 14.6542 22.9167 15.625C22.9167 16.5958 22.9167 17.0812 22.7584 17.4635C22.6537 17.7165 22.5002 17.9463 22.3066 18.1399C22.113 18.3334 21.8832 18.487 21.6302 18.5917C21.248 18.75 20.7625 18.75 19.7917 18.75H5.20837C4.23754 18.75 3.75212 18.75 3.36983 18.5917C3.1169 18.487 2.88707 18.3334 2.6935 18.1399C2.49993 17.9463 2.34641 17.7165 2.24171 17.4635C2.08337 17.0812 2.08337 16.5958 2.08337 15.625Z" stroke="black" stroke-opacity="0.6" stroke-width="1.5"/>
<path d="M19.2709 12.5V10.9375C19.2709 8.97291 19.2709 7.99166 18.6605 7.38124C18.0501 6.77083 17.0688 6.77083 15.1042 6.77083H9.89592C7.93133 6.77083 6.95008 6.77083 6.33966 7.38124C5.72925 7.99166 5.72925 8.97291 5.72925 10.9375V12.5M12.5001 7.29166V12.5" stroke="black" stroke-opacity="0.6" stroke-width="1.5"/>
</svg>
