<svg width="14" height="14" viewBox="0 0 14 14" fill="none" xmlns="http://www.w3.org/2000/svg">
<g clip-path="url(#clip0_1_891)">
<path d="M12.5 0.5H1.5C1.23478 0.5 0.98043 0.605357 0.792893 0.792893C0.605357 0.98043 0.5 1.23478 0.5 1.5V6.5C0.5 6.76522 0.605357 7.01957 0.792893 7.20711C0.98043 7.39464 1.23478 7.5 1.5 7.5H12.5C12.7652 7.5 13.0196 7.39464 13.2071 7.20711C13.3946 7.01957 13.5 6.76522 13.5 6.5V1.5C13.5 1.23478 13.3946 0.98043 13.2071 0.792893C13.0196 0.605357 12.7652 0.5 12.5 0.5Z" stroke="black" stroke-linecap="round" stroke-linejoin="round"/>
<path d="M11 7.5V5.5C11 5.23478 10.8946 4.98043 10.7071 4.79289C10.5196 4.60536 10.2652 4.5 10 4.5H4C3.73478 4.5 3.48043 4.60536 3.29289 4.79289C3.10536 4.98043 3 5.23478 3 5.5V7.5M2.5 12.5H2.6C2.9713 12.5 3.3274 12.3525 3.58995 12.0899C3.8525 11.8274 4 11.4713 4 11.1V10M11.5 12.5H11.4C11.0287 12.5 10.6726 12.3525 10.4101 12.0899C10.1475 11.8274 10 11.4713 10 11.1V10M7 13.5V10" stroke="black" stroke-linecap="round" stroke-linejoin="round"/>
</g>
<defs>
<clipPath id="clip0_1_891">
<rect width="14" height="14" fill="white"/>
</clipPath>
</defs>
</svg>
